<?xml version="1.0" encoding="UTF-8" standalone="no"?>
<!DOCTYPE svg PUBLIC "-//W3C//DTD SVG 1.1//EN" "http://www.w3.org/Graphics/SVG/1.1/DTD/svg11.dtd">
<svg width="100%" height="100%" viewBox="0 0 223 90" version="1.1" xmlns="http://www.w3.org/2000/svg" xmlns:xlink="http://www.w3.org/1999/xlink" xml:space="preserve" xmlns:serif="http://www.serif.com/" style="fill-rule:evenodd;clip-rule:evenodd;stroke-linecap:round;stroke-linejoin:round;stroke-miterlimit:1.5;">
    <g id="text" transform="matrix(0.217391,0,0,0.217391,0,0)">
        <g transform="matrix(1,0,0,1,613.328,329.969)">
            <g transform="matrix(64,0,0,64,0,0)">
                <path d="M0.073,-0L0.073,-0.716L0.604,-0.716L0.604,-0.595L0.217,-0.595L0.217,-0.436L0.577,-0.436L0.577,-0.315L0.217,-0.315L0.217,-0.121L0.617,-0.121L0.617,-0L0.073,-0Z" style="fill:white;fill-rule:nonzero;"/>
            </g>
            <g transform="matrix(64,0,0,64,42.6875,0)">
                <path d="M0.543,-0L0.406,-0L0.406,-0.265C0.406,-0.321 0.403,-0.357 0.397,-0.373C0.392,-0.39 0.382,-0.403 0.369,-0.412C0.356,-0.421 0.34,-0.425 0.321,-0.425C0.298,-0.425 0.276,-0.419 0.257,-0.406C0.238,-0.393 0.226,-0.375 0.219,-0.354C0.212,-0.333 0.208,-0.293 0.208,-0.235L0.208,-0L0.071,-0L0.071,-0.519L0.198,-0.519L0.198,-0.442C0.243,-0.501 0.3,-0.53 0.369,-0.53C0.399,-0.53 0.427,-0.525 0.452,-0.514C0.477,-0.503 0.496,-0.489 0.509,-0.472C0.522,-0.455 0.531,-0.436 0.536,-0.415C0.541,-0.393 0.543,-0.362 0.543,-0.322L0.543,-0Z" style="fill:white;fill-rule:nonzero;"/>
            </g>
            <g transform="matrix(64,0,0,64,81.7812,0)">
                <path d="M0.059,0.034L0.216,0.053C0.218,0.071 0.224,0.084 0.234,0.091C0.247,0.101 0.267,0.105 0.295,0.105C0.331,0.105 0.358,0.1 0.376,0.089C0.388,0.082 0.397,0.071 0.403,0.055C0.408,0.043 0.41,0.022 0.41,-0.008L0.41,-0.084C0.369,-0.028 0.317,-0 0.254,-0C0.185,-0 0.13,-0.029 0.089,-0.088C0.057,-0.135 0.041,-0.193 0.041,-0.262C0.041,-0.349 0.062,-0.416 0.104,-0.461C0.146,-0.507 0.198,-0.53 0.26,-0.53C0.324,-0.53 0.377,-0.502 0.418,-0.446L0.418,-0.519L0.547,-0.519L0.547,-0.053C0.547,0.008 0.542,0.054 0.532,0.084C0.522,0.114 0.507,0.138 0.489,0.155C0.471,0.173 0.447,0.186 0.416,0.196C0.386,0.206 0.347,0.21 0.301,0.21C0.213,0.21 0.151,0.195 0.114,0.165C0.077,0.135 0.059,0.097 0.059,0.051C0.059,0.046 0.059,0.041 0.059,0.034ZM0.182,-0.27C0.182,-0.215 0.192,-0.175 0.214,-0.149C0.235,-0.124 0.261,-0.111 0.292,-0.111C0.326,-0.111 0.354,-0.124 0.377,-0.15C0.401,-0.176 0.412,-0.215 0.412,-0.267C0.412,-0.32 0.401,-0.36 0.379,-0.386C0.357,-0.412 0.329,-0.425 0.295,-0.425C0.262,-0.425 0.235,-0.413 0.214,-0.387C0.192,-0.361 0.182,-0.322 0.182,-0.27Z" style="fill:white;fill-rule:nonzero;"/>
            </g>
            <g transform="matrix(64,0,0,64,120.875,0)">
                <path d="M0.072,-0.589L0.072,-0.716L0.209,-0.716L0.209,-0.589L0.072,-0.589ZM0.072,-0L0.072,-0.519L0.209,-0.519L0.209,-0L0.072,-0Z" style="fill:white;fill-rule:nonzero;"/>
            </g>
            <g transform="matrix(64,0,0,64,138.656,0)">
                <path d="M0.543,-0L0.406,-0L0.406,-0.265C0.406,-0.321 0.403,-0.357 0.397,-0.373C0.392,-0.39 0.382,-0.403 0.369,-0.412C0.356,-0.421 0.34,-0.425 0.321,-0.425C0.298,-0.425 0.276,-0.419 0.257,-0.406C0.238,-0.393 0.226,-0.375 0.219,-0.354C0.212,-0.333 0.208,-0.293 0.208,-0.235L0.208,-0L0.071,-0L0.071,-0.519L0.198,-0.519L0.198,-0.442C0.243,-0.501 0.3,-0.53 0.369,-0.53C0.399,-0.53 0.427,-0.525 0.452,-0.514C0.477,-0.503 0.496,-0.489 0.509,-0.472C0.522,-0.455 0.531,-0.436 0.536,-0.415C0.541,-0.393 0.543,-0.362 0.543,-0.322L0.543,-0Z" style="fill:white;fill-rule:nonzero;"/>
            </g>
            <g transform="matrix(64,0,0,64,177.75,0)">
                <path d="M0.372,-0.165L0.509,-0.142C0.491,-0.092 0.463,-0.054 0.426,-0.028C0.388,-0.001 0.34,0.012 0.283,0.012C0.193,0.012 0.126,-0.018 0.083,-0.077C0.049,-0.124 0.032,-0.183 0.032,-0.255C0.032,-0.341 0.054,-0.409 0.099,-0.457C0.144,-0.506 0.201,-0.53 0.27,-0.53C0.347,-0.53 0.408,-0.505 0.452,-0.454C0.497,-0.403 0.518,-0.325 0.516,-0.22L0.172,-0.22C0.173,-0.179 0.184,-0.147 0.206,-0.125C0.227,-0.102 0.253,-0.091 0.285,-0.091C0.306,-0.091 0.324,-0.097 0.339,-0.108C0.354,-0.12 0.365,-0.139 0.372,-0.165ZM0.38,-0.304C0.379,-0.343 0.369,-0.374 0.349,-0.394C0.33,-0.415 0.306,-0.425 0.278,-0.425C0.248,-0.425 0.223,-0.414 0.204,-0.393C0.184,-0.371 0.174,-0.341 0.175,-0.304L0.38,-0.304Z" style="fill:white;fill-rule:nonzero;"/>
            </g>
        </g>
        <g transform="matrix(1,0,0,1,455.644,247.186)">
            <g transform="matrix(144,0,0,144,0,0)">
                <path d="M0.655,-0.047C0.586,-0.007 0.501,0.012 0.4,0.012C0.287,0.012 0.198,-0.019 0.134,-0.081C0.069,-0.144 0.036,-0.229 0.036,-0.339C0.036,-0.449 0.072,-0.539 0.143,-0.608C0.214,-0.677 0.308,-0.712 0.426,-0.712C0.5,-0.712 0.565,-0.702 0.622,-0.681L0.622,-0.533C0.568,-0.564 0.502,-0.58 0.424,-0.58C0.358,-0.58 0.305,-0.559 0.264,-0.516C0.223,-0.474 0.202,-0.417 0.202,-0.346C0.202,-0.274 0.221,-0.219 0.258,-0.179C0.295,-0.14 0.344,-0.12 0.407,-0.12C0.445,-0.12 0.475,-0.125 0.497,-0.136L0.497,-0.273L0.357,-0.273L0.357,-0.399L0.655,-0.399L0.655,-0.047Z" style="fill:white;fill-rule:nonzero;"/>
            </g>
            <g transform="matrix(144,0,0,144,102.375,0)">
                <path d="M0.376,0.012C0.276,0.012 0.194,-0.02 0.131,-0.086C0.068,-0.151 0.036,-0.236 0.036,-0.341C0.036,-0.451 0.068,-0.541 0.132,-0.609C0.196,-0.678 0.281,-0.712 0.387,-0.712C0.487,-0.712 0.568,-0.679 0.63,-0.614C0.691,-0.548 0.722,-0.462 0.722,-0.355C0.722,-0.245 0.69,-0.156 0.626,-0.089C0.562,-0.021 0.479,0.012 0.376,0.012ZM0.383,-0.576C0.327,-0.576 0.284,-0.555 0.251,-0.514C0.218,-0.472 0.202,-0.417 0.202,-0.349C0.202,-0.28 0.218,-0.225 0.251,-0.185C0.284,-0.144 0.326,-0.124 0.379,-0.124C0.433,-0.124 0.476,-0.144 0.508,-0.183C0.54,-0.222 0.556,-0.277 0.556,-0.346C0.556,-0.419 0.541,-0.475 0.51,-0.516C0.479,-0.556 0.437,-0.576 0.383,-0.576Z" style="fill:white;fill-rule:nonzero;"/>
            </g>
            <g transform="matrix(144,0,0,144,211.57,0)">
                <path d="M0.08,-0L0.08,-0.7L0.335,-0.7C0.413,-0.7 0.473,-0.686 0.515,-0.657C0.557,-0.629 0.578,-0.588 0.578,-0.536C0.578,-0.498 0.565,-0.465 0.54,-0.437C0.514,-0.409 0.482,-0.389 0.442,-0.378L0.442,-0.376C0.492,-0.37 0.531,-0.351 0.561,-0.321C0.591,-0.29 0.606,-0.253 0.606,-0.209C0.606,-0.145 0.583,-0.094 0.537,-0.056C0.491,-0.019 0.429,-0 0.349,-0L0.08,-0ZM0.238,-0.584L0.238,-0.418L0.307,-0.418C0.34,-0.418 0.365,-0.426 0.384,-0.442C0.403,-0.457 0.412,-0.479 0.412,-0.507C0.412,-0.558 0.374,-0.584 0.297,-0.584L0.238,-0.584ZM0.238,-0.301L0.238,-0.116L0.323,-0.116C0.36,-0.116 0.388,-0.125 0.409,-0.142C0.43,-0.159 0.44,-0.182 0.44,-0.211C0.44,-0.239 0.43,-0.261 0.409,-0.277C0.389,-0.293 0.361,-0.301 0.324,-0.301L0.238,-0.301Z" style="fill:white;fill-rule:nonzero;"/>
            </g>
            <g transform="matrix(144,0,0,144,303.891,0)">
                <path d="M0.497,-0L0.08,-0L0.08,-0.7L0.238,-0.7L0.238,-0.128L0.497,-0.128L0.497,-0Z" style="fill:white;fill-rule:nonzero;"/>
            </g>
            <g transform="matrix(144,0,0,144,377.508,0)">
                <rect x="0.08" y="-0.7" width="0.158" height="0.7" style="fill:white;fill-rule:nonzero;"/>
            </g>
            <g transform="matrix(144,0,0,144,423.141,0)">
                <path d="M0.71,-0L0.551,-0L0.262,-0.44C0.245,-0.466 0.234,-0.485 0.227,-0.498L0.225,-0.498C0.228,-0.473 0.229,-0.436 0.229,-0.385L0.229,-0L0.08,-0L0.08,-0.7L0.25,-0.7L0.528,-0.274C0.541,-0.255 0.552,-0.236 0.563,-0.217L0.565,-0.217C0.562,-0.233 0.561,-0.265 0.561,-0.313L0.561,-0.7L0.71,-0.7L0.71,-0Z" style="fill:white;fill-rule:nonzero;"/>
            </g>
        </g>
    </g>
    <g id="goblin" transform="matrix(0.0789474,0,0,0.0777174,6.23752,1.47826)">
        <g id="Layer2">
            <g transform="matrix(1,0,0,1,-32,16)">
                <path d="M896,912L864,912C855.169,912 848,888.727 848,879.897L848,880C847.944,888.783 840.796,912 832,912L800,912C791.169,912 784,888.727 784,879.897L784,880C783.944,888.783 776.796,912 768,912L736,912C727.169,912 720,888.727 720,879.897L720,880C719.944,888.783 712.796,912 704,912L672,912C663.169,912 656,888.727 656,879.897L656,608L912,608L912,879.897C912,888.727 904.831,912 896,912Z" style="fill:rgb(185,185,185);stroke:rgb(185,185,185);stroke-width:24px;"/>
            </g>
            <g transform="matrix(1,0,0,1,-512,16)">
                <path d="M896,912L864,912C855.169,912 848,888.831 848,880L848,880.103C847.944,888.886 840.796,912 832,912L800,912C791.169,912 784,888.831 784,880L784,880.103C783.944,888.886 776.796,912 768,912L736,912C727.169,912 720,888.831 720,880L720,880.103C719.944,888.886 712.796,912 704,912L672,912C663.169,912 656,888.831 656,880L656,608L912,608L912,880C912,888.831 904.831,912 896,912Z" style="fill:rgb(185,185,185);stroke:rgb(185,185,185);stroke-width:24px;"/>
            </g>
        </g>
        <g id="ear">
            <path d="M864,448C864,448 969.661,361.254 976,368C985.456,378.063 971.275,517.798 945.897,560C921.916,599.879 864,608 864,608L832,608L832,448L864,448Z" style="fill:rgb(47,85,108);stroke:rgb(47,85,108);stroke-width:24px;"/>
            <g transform="matrix(0.707107,-0.707107,0.707107,0.707107,43.8169,262.522)">
                <path d="M456,746.424C482.272,737.46 524.936,740.06 552,746.424" style="fill:none;stroke:rgb(19,52,72);stroke-width:24px;"/>
            </g>
        </g>
        <g id="ear1" serif:id="ear" transform="matrix(-1,0,0,1,1024,-1.13687e-13)">
            <path d="M864,448C864,448 969.661,361.254 976,368C985.456,378.063 971.275,517.798 945.897,560C921.916,599.879 864,608 864,608L832,608L832,448L864,448Z" style="fill:rgb(47,85,108);stroke:rgb(47,85,108);stroke-width:24px;"/>
            <g transform="matrix(0.707107,-0.707107,0.707107,0.707107,43.8169,262.522)">
                <path d="M456,746.424C482.272,737.46 524.936,740.06 552,746.424" style="fill:none;stroke:rgb(19,52,72);stroke-width:24px;"/>
            </g>
        </g>
        <g transform="matrix(0.92,0,0,1,40.96,0)">
            <path d="M208.569,672.488C149.633,645.379 112,607.882 112,560C112,339.234 291.234,160 512,160C732.766,160 912,339.234 912,560C912,607.875 874.377,645.368 815.431,672.488L704,768C704,873.968 617.968,960 512,960C411.42,960 328.8,882.494 320.659,784C320.222,778.724 320,773.388 320,768L208.569,672.488Z" style="fill:rgb(47,85,108);stroke:rgb(47,85,108);stroke-width:24.98px;"/>
        </g>
        <path d="M480,320C480,328.831 487.169,352 496,352L528,352C536.796,352 543.944,328.886 544,320.103L544,320C544,328.831 551.169,352 560,352L592,352C600.796,352 607.944,328.886 608,320.103L608,320C608,328.831 615.169,352 624,352L656,352C664.796,352 671.944,328.886 672,320.103L672,320C672,328.831 679.169,352 688,352L720,352C728.831,352 736,328.831 736,320C736,328.831 743.169,352 752,352L784,352C792.796,352 799.944,328.886 800,320.103L800,311.09C732.539,219.033 628.562,160 512,160C501.215,160 490.538,160.505 480,161.495C376.515,171.204 285.221,227.548 224,311.09L224,320C224,328.831 231.169,352 240,352L272,352C280.796,352 287.944,328.886 288,320.103L288,320C288,328.831 295.169,352 304,352L336,352C344.796,352 351.944,328.886 352,320.103L352,320C352,328.831 359.169,352 368,352L400,352C408.796,352 415.944,328.886 416,320.103L416,320C416,328.831 423.169,352 432,352L464,352C472.831,352 480,328.831 480,320Z" style="fill:rgb(185,185,185);stroke:rgb(185,185,185);stroke-width:24px;"/>
        <g id="mouth">
            <g transform="matrix(1,0,0,0.484897,0,395.599)">
                <path d="M416,768C477.744,724.381 541.705,723.629 608,768" style="fill:none;stroke:black;stroke-width:30.54px;"/>
            </g>
            <g transform="matrix(1,0,0,1,8,59.3649)">
                <path d="M456,746.424C482.272,737.46 524.936,740.06 552,746.424" style="fill:none;stroke:rgb(19,52,72);stroke-width:24px;"/>
            </g>
        </g>
        <g id="nose">
            <g transform="matrix(1,0,0,1,32,-1.13687e-13)">
                <path d="M448,656L448,608" style="fill:none;stroke:black;stroke-width:24px;"/>
            </g>
            <g transform="matrix(1,0,0,1,96,-1.13687e-13)">
                <path d="M448,656L448,608" style="fill:none;stroke:black;stroke-width:24px;"/>
            </g>
        </g>
        <g id="eye" transform="matrix(1.75014,0,0,1.75014,-536.134,-424.087)">
            <g transform="matrix(0.666667,0,0,0.666542,224,160.072)">
                <circle cx="720" cy="528" r="48"/>
            </g>
            <g transform="matrix(1,0,0,1,-16,-10.0026)">
                <circle cx="725.5" cy="532.5" r="5.5" style="fill:white;"/>
            </g>
            <g transform="matrix(1.07554,0,0,1.07555,-81.3958,-45.3924)">
                <circle cx="734.5" cy="505.5" r="8.5" style="fill:white;"/>
            </g>
            <g transform="matrix(0.666612,0,0,0.571384,368.046,120.813)">
                <path d="M456,746.424C482.272,737.46 524.936,740.06 552,746.424" style="fill:none;stroke:rgb(19,52,72);stroke-width:22.09px;"/>
            </g>
        </g>
        <g id="eye1" serif:id="eye" transform="matrix(1.75014,0,0,1.75014,-904.097,-424.087)">
            <g transform="matrix(0.666667,0,0,0.666542,224,160.072)">
                <circle cx="720" cy="528" r="48"/>
            </g>
            <g transform="matrix(1,0,0,1,-16,-10.0026)">
                <circle cx="725.5" cy="532.5" r="5.5" style="fill:white;"/>
            </g>
            <g transform="matrix(1.07554,0,0,1.07555,-81.4167,-45.3924)">
                <circle cx="734.5" cy="505.5" r="8.5" style="fill:white;"/>
            </g>
            <g transform="matrix(0.666612,0,0,0.571384,368.046,120.813)">
                <path d="M456,746.424C482.272,737.46 524.936,740.06 552,746.424" style="fill:none;stroke:rgb(19,52,72);stroke-width:22.09px;"/>
            </g>
        </g>
    </g>
</svg>
