<?xml version="1.0" encoding="UTF-8"?>
<svg xmlns="http://www.w3.org/2000/svg" width="16" height="16" viewBox="0 0 16 16">
  <!-- SoundFontResource class icon: waveform inside a resource frame. -->
  <g fill="#8da5f3" fill-rule="evenodd">
    <path opacity=".18" d="M3 2h10a2 2 0 0 1 2 2v8a2 2 0 0 1-2 2H3a2 2 0 0 1-2-2V4a2 2 0 0 1 2-2Z"/>
    <path d="M3 3h10a1 1 0 0 1 1 1v8a1 1 0 0 1-1 1H3a1 1 0 0 1-1-1V4a1 1 0 0 1 1-1Zm0 1v8h10V4H3Z"/>

    <!-- Sound wave -->
    <path opacity=".6" d="M4.5 6v4M6 4.5v7M7.5 6.5v3M9 3.5v9M10.5 5.5v5M12 6v4"/>
    <path d="M4 6h1v4H4V6Zm3-2h1v8H7V4Zm3-1h1v10h-1V3Z"/>
  </g>
</svg>
