<?xml version="1.0" encoding="UTF-8" standalone="no"?>
<!DOCTYPE svg PUBLIC "-//W3C//DTD SVG 1.1//EN" "http://www.w3.org/Graphics/SVG/1.1/DTD/svg11.dtd">
<svg width="100%" height="100%" viewBox="0 0 1024 1024" version="1.1" xmlns="http://www.w3.org/2000/svg" xmlns:xlink="http://www.w3.org/1999/xlink" xml:space="preserve" xmlns:serif="http://www.serif.com/" style="fill-rule:evenodd;clip-rule:evenodd;stroke-linecap:round;stroke-linejoin:round;stroke-miterlimit:1.5;">
    <g id="outline" transform="matrix(1,0,0,1,0,-32)">
        <path d="M112,626.455L112,896C112,906.398 117.759,928.663 126.399,941.058C135.804,954.548 148.682,960 160,960L192,960C197.166,960 202.661,958.863 207.996,956.325C213.332,958.862 218.829,960 224,960L256,960C261.166,960 266.661,958.863 271.996,956.325C277.332,958.862 282.829,960 288,960L320,960C325.166,960 330.661,958.863 335.996,956.325C341.332,958.862 346.829,960 352,960L384,960C389.194,960 394.431,958.961 399.497,956.659C432.029,979.084 470.647,992 512,992C553.349,992 591.964,979.087 624.505,956.658C629.571,958.962 634.808,960 640,960L672,960C677.163,960 682.659,958.862 687.996,956.321C693.336,958.862 698.833,960 704,960L736,960C741.163,960 746.659,958.862 751.996,956.321C757.336,958.862 762.833,960 768,960L800,960C805.163,960 810.659,958.862 815.996,956.321C821.336,958.862 826.833,960 832,960L864,960C875.321,960 888.228,954.535 897.636,940.985C906.257,928.569 912,906.27 912,895.897L912,626.455C933.676,616.926 958.441,601.234 973.32,576.491C995.632,539.388 1011.37,433.939 1010.94,387.479C1010.81,373.792 1008.92,363.703 1006.96,358.504C1004.83,352.886 1001.97,348.903 999.32,346.087C993.726,340.134 980.386,330.547 959.919,338.694C946.868,343.888 909.971,371.353 881.211,393.603C820.699,237.262 677.774,128 512,128C346.226,128 203.301,237.262 142.789,393.603C114.029,371.353 77.132,343.888 64.081,338.694C43.614,330.547 30.274,340.134 24.68,346.087C22.034,348.903 19.167,352.886 17.044,358.504C15.079,363.703 13.194,373.792 13.065,387.479C12.626,433.939 28.368,539.388 50.68,576.491C65.561,601.237 90.33,616.93 112,626.455ZM823.359,920.688C825.847,924.974 828.816,928 832,928L864,928C872.831,928 880,904.727 880,895.897L880,624L855.936,624C860.315,618.678 864.145,613.15 867.387,607.412C880.114,604.969 925.4,594.084 945.897,560C971.275,517.798 985.456,378.063 976,368C970.044,361.661 876.401,437.862 865.11,447.091C820.224,281.223 679.033,160 512,160C344.967,160 203.776,281.223 158.89,447.091C147.599,437.862 53.956,361.661 48,368C38.544,378.063 52.725,517.798 78.103,560C98.6,594.084 143.886,604.969 156.612,607.412C159.853,613.15 163.683,618.678 168.061,624L144,624L144,896C144,904.831 151.169,928 160,928L192,928C195.191,928 198.166,924.958 200.658,920.658L208,928L215.339,920.685L215.369,920.735L208.106,927.997L208.106,927.997L215.386,920.764C217.869,925.009 220.827,928 224,928L256,928C259.191,928 262.166,924.958 264.658,920.658L272,928L279.339,920.685L279.369,920.735L272.106,927.997L272.106,927.997L279.386,920.764C281.869,925.009 284.827,928 288,928L320,928C323.191,928 326.166,924.958 328.658,920.658L336,928L343.339,920.685L343.369,920.735L336.106,927.997L336.106,927.997L343.386,920.764C345.869,925.009 348.827,928 352,928L384,928C388.907,928 393.301,920.845 396.237,912.974C427.245,942.261 467.732,960 512,960C556.27,960 596.759,942.26 627.78,912.959C630.716,920.842 635.103,928 640,928L672,928C675.203,928 678.187,924.922 680.685,920.581L688,927.897L695.313,920.608L695.342,920.658L688.106,927.894L688.107,927.894L695.359,920.688C697.847,924.974 700.816,928 704,928L736,928C739.203,928 742.187,924.922 744.685,920.581L752,927.897L759.313,920.608L759.342,920.658L752.106,927.894L752.107,927.894L759.359,920.688C761.847,924.974 764.816,928 768,928L800,928C803.203,928 806.187,924.922 808.685,920.581L816,927.897L823.313,920.608L823.342,920.658L816.106,927.894L816.107,927.894L823.359,920.688Z" style="fill:white;"/>
    </g>
    <g id="goblin" transform="matrix(1,0,0,1,0,-32)">
        <g id="Layer2">
            <g transform="matrix(1,0,0,1,-32,16)">
                <path d="M896,912L864,912C855.169,912 848,888.727 848,879.897L848,880C847.944,888.783 840.796,912 832,912L800,912C791.169,912 784,888.727 784,879.897L784,880C783.944,888.783 776.796,912 768,912L736,912C727.169,912 720,888.727 720,879.897L720,880C719.944,888.783 712.796,912 704,912L672,912C663.169,912 656,888.727 656,879.897L656,608L912,608L912,879.897C912,888.727 904.831,912 896,912Z" style="fill:rgb(185,185,185);stroke:rgb(185,185,185);stroke-width:24px;"/>
            </g>
            <g transform="matrix(1,0,0,1,-512,16)">
                <path d="M896,912L864,912C855.169,912 848,888.831 848,880L848,880.103C847.944,888.886 840.796,912 832,912L800,912C791.169,912 784,888.831 784,880L784,880.103C783.944,888.886 776.796,912 768,912L736,912C727.169,912 720,888.831 720,880L720,880.103C719.944,888.886 712.796,912 704,912L672,912C663.169,912 656,888.831 656,880L656,608L912,608L912,880C912,888.831 904.831,912 896,912Z" style="fill:rgb(185,185,185);stroke:rgb(185,185,185);stroke-width:24px;"/>
            </g>
        </g>
        <g id="ear">
            <path d="M864,448C864,448 969.661,361.254 976,368C985.456,378.063 971.275,517.798 945.897,560C921.916,599.879 864,608 864,608L832,608L832,448L864,448Z" style="fill:rgb(47,85,108);stroke:rgb(47,85,108);stroke-width:24px;"/>
            <g transform="matrix(0.707107,-0.707107,0.707107,0.707107,43.8169,262.522)">
                <path d="M456,746.424C482.272,737.46 524.936,740.06 552,746.424" style="fill:none;stroke:rgb(19,52,72);stroke-width:24px;"/>
            </g>
        </g>
        <g id="ear1" serif:id="ear" transform="matrix(-1,0,0,1,1024,-1.13687e-13)">
            <path d="M864,448C864,448 969.661,361.254 976,368C985.456,378.063 971.275,517.798 945.897,560C921.916,599.879 864,608 864,608L832,608L832,448L864,448Z" style="fill:rgb(47,85,108);stroke:rgb(47,85,108);stroke-width:24px;"/>
            <g transform="matrix(0.707107,-0.707107,0.707107,0.707107,43.8169,262.522)">
                <path d="M456,746.424C482.272,737.46 524.936,740.06 552,746.424" style="fill:none;stroke:rgb(19,52,72);stroke-width:24px;"/>
            </g>
        </g>
        <g transform="matrix(0.92,0,0,1,40.96,0)">
            <path d="M208.569,672.488C149.633,645.379 112,607.882 112,560C112,339.234 291.234,160 512,160C732.766,160 912,339.234 912,560C912,607.875 874.377,645.368 815.431,672.488L704,768C704,873.968 617.968,960 512,960C411.42,960 328.8,882.494 320.659,784C320.222,778.724 320,773.388 320,768L208.569,672.488Z" style="fill:rgb(47,85,108);stroke:rgb(47,85,108);stroke-width:24.98px;"/>
        </g>
        <path d="M480,320C480,328.831 487.169,352 496,352L528,352C536.796,352 543.944,328.886 544,320.103L544,320C544,328.831 551.169,352 560,352L592,352C600.796,352 607.944,328.886 608,320.103L608,320C608,328.831 615.169,352 624,352L656,352C664.796,352 671.944,328.886 672,320.103L672,320C672,328.831 679.169,352 688,352L720,352C728.831,352 736,328.831 736,320C736,328.831 743.169,352 752,352L784,352C792.796,352 799.944,328.886 800,320.103L800,320L800,311.09C732.539,219.033 628.562,160 512,160C501.215,160 490.538,160.505 480,161.495C376.515,171.204 285.221,227.548 224,311.09L224,320C224,328.831 231.169,352 240,352L272,352C280.796,352 287.944,328.886 288,320.103L288,320C288,328.831 295.169,352 304,352L336,352C344.796,352 351.944,328.886 352,320.103L352,320C352,328.831 359.169,352 368,352L400,352C408.796,352 415.944,328.886 416,320.103L416,320C416,328.831 423.169,352 432,352L464,352C472.831,352 480,328.831 480,320Z" style="fill:rgb(185,185,185);stroke:rgb(185,185,185);stroke-width:24px;"/>
        <g id="mouth">
            <g transform="matrix(1,0,0,0.484897,0,395.599)">
                <path d="M416,768C477.744,724.381 541.705,723.629 608,768" style="fill:none;stroke:black;stroke-width:30.54px;"/>
            </g>
            <g transform="matrix(1,0,0,1,8,59.3649)">
                <path d="M456,746.424C482.272,737.46 524.936,740.06 552,746.424" style="fill:none;stroke:rgb(19,52,72);stroke-width:24px;"/>
            </g>
        </g>
        <g id="nose">
            <g transform="matrix(1,0,0,1,32,-1.13687e-13)">
                <path d="M448,656L448,608" style="fill:none;stroke:black;stroke-width:24px;"/>
            </g>
            <g transform="matrix(1,0,0,1,96,-1.13687e-13)">
                <path d="M448,656L448,608" style="fill:none;stroke:black;stroke-width:24px;"/>
            </g>
        </g>
        <g id="eye" transform="matrix(1.75014,0,0,1.75014,-536.134,-424.087)">
            <g transform="matrix(0.666667,0,0,0.666542,224,160.072)">
                <circle cx="720" cy="528" r="48"/>
            </g>
            <g transform="matrix(1,0,0,1,-16,-10.0026)">
                <circle cx="725.5" cy="532.5" r="5.5" style="fill:white;"/>
            </g>
            <g transform="matrix(1.07554,0,0,1.07555,-81.3958,-45.3924)">
                <circle cx="734.5" cy="505.5" r="8.5" style="fill:white;"/>
            </g>
            <g transform="matrix(0.666612,0,0,0.571384,368.046,120.813)">
                <path d="M456,746.424C482.272,737.46 524.936,740.06 552,746.424" style="fill:none;stroke:rgb(19,52,72);stroke-width:22.09px;"/>
            </g>
        </g>
        <g id="eye1" serif:id="eye" transform="matrix(1.75014,0,0,1.75014,-904.097,-424.087)">
            <g transform="matrix(0.666667,0,0,0.666542,224,160.072)">
                <circle cx="720" cy="528" r="48"/>
            </g>
            <g transform="matrix(1,0,0,1,-16,-10.0026)">
                <circle cx="725.5" cy="532.5" r="5.5" style="fill:white;"/>
            </g>
            <g transform="matrix(1.07554,0,0,1.07555,-81.4167,-45.3924)">
                <circle cx="734.5" cy="505.5" r="8.5" style="fill:white;"/>
            </g>
            <g transform="matrix(0.666612,0,0,0.571384,368.046,120.813)">
                <path d="M456,746.424C482.272,737.46 524.936,740.06 552,746.424" style="fill:none;stroke:rgb(19,52,72);stroke-width:22.09px;"/>
            </g>
        </g>
    </g>
</svg>
