<?xml version="1.0" encoding="UTF-8" standalone="no"?>
<!DOCTYPE svg PUBLIC "-//W3C//DTD SVG 1.1//EN" "http://www.w3.org/Graphics/SVG/1.1/DTD/svg11.dtd">
<svg width="100%" height="100%" viewBox="0 0 1024 1024" version="1.1" xmlns="http://www.w3.org/2000/svg" xmlns:xlink="http://www.w3.org/1999/xlink" xml:space="preserve" xmlns:serif="http://www.serif.com/" style="fill-rule:evenodd;clip-rule:evenodd;stroke-linecap:round;stroke-linejoin:round;stroke-miterlimit:1.5;">
    <g id="goblin" transform="matrix(1,0,0,1,0,-32)">
        <g id="Layer2">
            <g transform="matrix(1,0,0,1,-32,16)">
                <path d="M896,912L864,912C855.169,912 848,888.727 848,879.897L848,880C847.944,888.783 840.796,912 832,912L800,912C791.169,912 784,888.727 784,879.897L784,880C783.944,888.783 776.796,912 768,912L736,912C727.169,912 720,888.727 720,879.897L720,880C719.944,888.783 712.796,912 704,912L672,912C663.169,912 656,888.727 656,879.897L656,608L912,608L912,879.897C912,888.727 904.831,912 896,912Z" style="fill:rgb(185,185,185);stroke:rgb(185,185,185);stroke-width:24px;"/>
            </g>
            <g transform="matrix(1,0,0,1,-512,16)">
                <path d="M896,912L864,912C855.169,912 848,888.831 848,880L848,880.103C847.944,888.886 840.796,912 832,912L800,912C791.169,912 784,888.831 784,880L784,880.103C783.944,888.886 776.796,912 768,912L736,912C727.169,912 720,888.831 720,880L720,880.103C719.944,888.886 712.796,912 704,912L672,912C663.169,912 656,888.831 656,880L656,608L912,608L912,880C912,888.831 904.831,912 896,912Z" style="fill:rgb(185,185,185);stroke:rgb(185,185,185);stroke-width:24px;"/>
            </g>
        </g>
        <g id="ear">
            <path d="M864,448C864,448 969.661,361.254 976,368C985.456,378.063 971.275,517.798 945.897,560C921.916,599.879 864,608 864,608L832,608L832,448L864,448Z" style="fill:rgb(47,85,108);stroke:rgb(47,85,108);stroke-width:24px;"/>
            <g transform="matrix(0.707107,-0.707107,0.707107,0.707107,43.8169,262.522)">
                <path d="M456,746.424C482.272,737.46 524.936,740.06 552,746.424" style="fill:none;stroke:rgb(19,52,72);stroke-width:24px;"/>
            </g>
        </g>
        <g id="ear1" serif:id="ear" transform="matrix(-1,0,0,1,1024,-1.13687e-13)">
            <path d="M864,448C864,448 969.661,361.254 976,368C985.456,378.063 971.275,517.798 945.897,560C921.916,599.879 864,608 864,608L832,608L832,448L864,448Z" style="fill:rgb(47,85,108);stroke:rgb(47,85,108);stroke-width:24px;"/>
            <g transform="matrix(0.707107,-0.707107,0.707107,0.707107,43.8169,262.522)">
                <path d="M456,746.424C482.272,737.46 524.936,740.06 552,746.424" style="fill:none;stroke:rgb(19,52,72);stroke-width:24px;"/>
            </g>
        </g>
        <g transform="matrix(0.92,0,0,1,40.96,0)">
            <path d="M208.569,672.488C149.633,645.379 112,607.882 112,560C112,339.234 291.234,160 512,160C732.766,160 912,339.234 912,560C912,607.875 874.377,645.368 815.431,672.488L704,768C704,873.968 617.968,960 512,960C411.42,960 328.8,882.494 320.659,784C320.222,778.724 320,773.388 320,768L208.569,672.488Z" style="fill:rgb(47,85,108);stroke:rgb(47,85,108);stroke-width:24.98px;"/>
        </g>
        <path d="M480,320C480,328.831 487.169,352 496,352L528,352C536.796,352 543.944,328.886 544,320.103L544,320C544,328.831 551.169,352 560,352L592,352C600.796,352 607.944,328.886 608,320.103L608,320C608,328.831 615.169,352 624,352L656,352C664.796,352 671.944,328.886 672,320.103L672,320C672,328.831 679.169,352 688,352L720,352C728.831,352 736,328.831 736,320C736,328.831 743.169,352 752,352L784,352C792.796,352 799.944,328.886 800,320.103L800,320L800,311.09C732.539,219.033 628.562,160 512,160C501.215,160 490.538,160.505 480,161.495C376.515,171.204 285.221,227.548 224,311.09L224,320C224,328.831 231.169,352 240,352L272,352C280.796,352 287.944,328.886 288,320.103L288,320C288,328.831 295.169,352 304,352L336,352C344.796,352 351.944,328.886 352,320.103L352,320C352,328.831 359.169,352 368,352L400,352C408.796,352 415.944,328.886 416,320.103L416,320C416,328.831 423.169,352 432,352L464,352C472.831,352 480,328.831 480,320Z" style="fill:rgb(185,185,185);stroke:rgb(185,185,185);stroke-width:24px;"/>
        <g id="mouth">
            <g transform="matrix(1,0,0,0.484897,0,395.599)">
                <path d="M416,768C477.744,724.381 541.705,723.629 608,768" style="fill:none;stroke:black;stroke-width:30.54px;"/>
            </g>
            <g transform="matrix(1,0,0,1,8,59.3649)">
                <path d="M456,746.424C482.272,737.46 524.936,740.06 552,746.424" style="fill:none;stroke:rgb(19,52,72);stroke-width:24px;"/>
            </g>
        </g>
        <g id="nose">
            <g transform="matrix(1,0,0,1,32,-1.13687e-13)">
                <path d="M448,656L448,608" style="fill:none;stroke:black;stroke-width:24px;"/>
            </g>
            <g transform="matrix(1,0,0,1,96,-1.13687e-13)">
                <path d="M448,656L448,608" style="fill:none;stroke:black;stroke-width:24px;"/>
            </g>
        </g>
        <g id="eye" transform="matrix(1.75014,0,0,1.75014,-536.134,-424.087)">
            <g transform="matrix(0.666667,0,0,0.666542,224,160.072)">
                <circle cx="720" cy="528" r="48"/>
            </g>
            <g transform="matrix(1,0,0,1,-16,-10.0026)">
                <circle cx="725.5" cy="532.5" r="5.5" style="fill:white;"/>
            </g>
            <g transform="matrix(1.07554,0,0,1.07555,-81.3958,-45.3924)">
                <circle cx="734.5" cy="505.5" r="8.5" style="fill:white;"/>
            </g>
            <g transform="matrix(0.666612,0,0,0.571384,368.046,120.813)">
                <path d="M456,746.424C482.272,737.46 524.936,740.06 552,746.424" style="fill:none;stroke:rgb(19,52,72);stroke-width:22.09px;"/>
            </g>
        </g>
        <g id="eye1" serif:id="eye" transform="matrix(1.75014,0,0,1.75014,-904.097,-424.087)">
            <g transform="matrix(0.666667,0,0,0.666542,224,160.072)">
                <circle cx="720" cy="528" r="48"/>
            </g>
            <g transform="matrix(1,0,0,1,-16,-10.0026)">
                <circle cx="725.5" cy="532.5" r="5.5" style="fill:white;"/>
            </g>
            <g transform="matrix(1.07554,0,0,1.07555,-81.4167,-45.3924)">
                <circle cx="734.5" cy="505.5" r="8.5" style="fill:white;"/>
            </g>
            <g transform="matrix(0.666612,0,0,0.571384,368.046,120.813)">
                <path d="M456,746.424C482.272,737.46 524.936,740.06 552,746.424" style="fill:none;stroke:rgb(19,52,72);stroke-width:22.09px;"/>
            </g>
        </g>
    </g>
</svg>
