<?xml version="1.0" encoding="UTF-8" standalone="no"?>
<!DOCTYPE svg PUBLIC "-//W3C//DTD SVG 1.1//EN" "http://www.w3.org/Graphics/SVG/1.1/DTD/svg11.dtd">
<svg width="100%" height="100%" viewBox="0 0 1024 414" version="1.1" xmlns="http://www.w3.org/2000/svg" xmlns:xlink="http://www.w3.org/1999/xlink" xml:space="preserve" xmlns:serif="http://www.serif.com/" style="fill-rule:evenodd;clip-rule:evenodd;stroke-linecap:round;stroke-linejoin:round;stroke-miterlimit:1.5;">
    <g id="text">
        <g transform="matrix(1,0,0,1,-10,24.1562)">
            <text x="623.328px" y="305.813px" style="font-family:'Arial-BoldMT', 'Arial', sans-serif;font-weight:700;font-size:64px;fill:rgb(59,59,59);">Engine</text>
        </g>
        <g transform="matrix(1,0,0,1,8.19542,36.5916)">
            <text x="447.449px" y="210.594px" style="font-family:'SegoeUI-Bold', 'Segoe UI', sans-serif;font-weight:700;font-size:144px;fill:rgb(59,59,59);">GOBLIN</text>
        </g>
    </g>
    <g id="outline" transform="matrix(0.363158,0,0,0.3575,28.6926,6.8)">
        <path d="M112.248,626.738L112.248,896C112.248,906.475 118.033,928.912 126.738,941.398C136.074,954.79 148.764,960.254 160,960.254L192,960.254C197.18,960.254 202.673,959.091 207.996,956.506C213.32,959.091 218.815,960.254 224,960.254L256,960.254C261.18,960.254 266.673,959.091 271.996,956.506C277.32,959.091 282.815,960.254 288,960.254L320,960.254C325.18,960.254 330.673,959.091 335.996,956.506C341.32,959.091 346.815,960.254 352,960.254L384,960.254C389.221,960.254 394.479,959.182 399.56,956.813C432.057,979.291 470.654,992.254 512,992.254C553.342,992.254 591.936,979.294 624.441,956.811C629.522,959.182 634.78,960.254 640,960.254L672,960.254C677.176,960.254 682.67,959.091 687.996,956.502C693.323,959.09 698.819,960.254 704,960.254L736,960.254C741.176,960.254 746.67,959.091 751.996,956.502C757.323,959.09 762.819,960.254 768,960.254L800,960.254C805.176,960.254 810.67,959.091 815.996,956.502C821.323,959.09 826.819,960.254 832,960.254L864,960.254C875.239,960.254 887.958,954.777 897.298,941.325C905.982,928.817 911.752,906.347 911.752,895.897L911.752,626.737C933.392,617.214 958.131,601.528 972.993,576.814C995.345,539.644 1011.13,434.015 1010.69,387.472C1010.56,373.669 1008.65,363.5 1006.67,358.257C1004.52,352.587 1001.64,348.571 998.968,345.729C993.46,339.868 980.32,330.373 960.169,338.394C947.052,343.615 909.838,371.348 881.033,393.651C820.612,237.215 677.801,127.746 512,127.746C346.199,127.746 203.388,237.214 142.967,393.65C114.162,371.348 76.948,343.615 63.831,338.394C43.68,330.373 30.54,339.868 25.032,345.729C22.362,348.571 19.477,352.587 17.335,358.257C15.354,363.5 13.443,373.669 13.313,387.472C12.874,434.015 28.655,539.644 51.007,576.814C65.868,601.527 90.607,617.213 112.248,626.738ZM823.41,920.775C825.889,925.016 828.838,928 832,928L864,928C872.831,928 880,904.727 880,895.897L880,624L855.936,624C860.315,618.678 864.145,613.15 867.387,607.412C880.114,604.969 925.4,594.084 945.897,560C971.275,517.798 985.456,378.063 976,368C970.044,361.661 876.401,437.862 865.11,447.091C820.224,281.223 679.033,160 512,160C344.967,160 203.776,281.223 158.89,447.091C147.599,437.862 53.956,361.661 48,368C38.544,378.063 52.725,517.798 78.103,560C98.6,594.084 143.886,604.969 156.612,607.412C159.853,613.15 163.683,618.678 168.061,624L144,624L144,896C144,904.831 151.169,928 160,928L192,928C195.17,928 198.126,924.998 200.607,920.745L208,928.254L215.39,920.772L215.419,920.821L208.104,928.252L208.105,928.252L215.437,920.851C217.91,925.05 220.849,928 224,928L256,928C259.17,928 262.126,924.998 264.607,920.745L272,928.254L279.39,920.772L279.419,920.821L272.104,928.252L272.105,928.252L279.437,920.851C281.91,925.05 284.849,928 288,928L320,928C323.17,928 326.126,924.998 328.607,920.745L336,928.254L343.39,920.772L343.419,920.821L336.104,928.252L336.105,928.252L343.437,920.851C345.91,925.05 348.849,928 352,928L384,928C388.907,928 393.301,920.845 396.237,912.974C427.245,942.261 467.732,960 512,960C556.27,960 596.759,942.26 627.78,912.959C630.716,920.842 635.103,928 640,928L672,928C675.181,928 678.146,924.964 680.634,920.668L688,928.151L695.364,920.696L695.393,920.745L688.104,928.148L688.105,928.148L695.41,920.775C697.889,925.016 700.838,928 704,928L736,928C739.181,928 742.146,924.964 744.634,920.668L752,928.151L759.364,920.696L759.393,920.745L752.104,928.148L752.105,928.148L759.41,920.775C761.889,925.016 764.838,928 768,928L800,928C803.181,928 806.146,924.964 808.634,920.668L816,928.151L823.364,920.696L823.393,920.745L816.104,928.148L816.105,928.148L823.41,920.775Z" style="fill:white;"/>
    </g>
    <g id="goblin" transform="matrix(0.363158,0,0,0.3575,28.6926,6.8)">
        <g id="Layer2">
            <g transform="matrix(1,0,0,1,-32,16)">
                <path d="M896,912L864,912C855.169,912 848,888.727 848,879.897L848,880C847.944,888.783 840.796,912 832,912L800,912C791.169,912 784,888.727 784,879.897L784,880C783.944,888.783 776.796,912 768,912L736,912C727.169,912 720,888.727 720,879.897L720,880C719.944,888.783 712.796,912 704,912L672,912C663.169,912 656,888.727 656,879.897L656,608L912,608L912,879.897C912,888.727 904.831,912 896,912Z" style="fill:rgb(185,185,185);stroke:rgb(185,185,185);stroke-width:24px;"/>
            </g>
            <g transform="matrix(1,0,0,1,-512,16)">
                <path d="M896,912L864,912C855.169,912 848,888.831 848,880L848,880.103C847.944,888.886 840.796,912 832,912L800,912C791.169,912 784,888.831 784,880L784,880.103C783.944,888.886 776.796,912 768,912L736,912C727.169,912 720,888.831 720,880L720,880.103C719.944,888.886 712.796,912 704,912L672,912C663.169,912 656,888.831 656,880L656,608L912,608L912,880C912,888.831 904.831,912 896,912Z" style="fill:rgb(185,185,185);stroke:rgb(185,185,185);stroke-width:24px;"/>
            </g>
        </g>
        <g id="ear">
            <path d="M864,448C864,448 969.661,361.254 976,368C985.456,378.063 971.275,517.798 945.897,560C921.916,599.879 864,608 864,608L832,608L832,448L864,448Z" style="fill:rgb(47,85,108);stroke:rgb(47,85,108);stroke-width:24px;"/>
            <g transform="matrix(0.707107,-0.707107,0.707107,0.707107,43.8169,262.522)">
                <path d="M456,746.424C482.272,737.46 524.936,740.06 552,746.424" style="fill:none;stroke:rgb(19,52,72);stroke-width:24px;"/>
            </g>
        </g>
        <g id="ear1" serif:id="ear" transform="matrix(-1,0,0,1,1024,-1.13687e-13)">
            <path d="M864,448C864,448 969.661,361.254 976,368C985.456,378.063 971.275,517.798 945.897,560C921.916,599.879 864,608 864,608L832,608L832,448L864,448Z" style="fill:rgb(47,85,108);stroke:rgb(47,85,108);stroke-width:24px;"/>
            <g transform="matrix(0.707107,-0.707107,0.707107,0.707107,43.8169,262.522)">
                <path d="M456,746.424C482.272,737.46 524.936,740.06 552,746.424" style="fill:none;stroke:rgb(19,52,72);stroke-width:24px;"/>
            </g>
        </g>
        <g transform="matrix(0.92,0,0,1,40.96,0)">
            <path d="M208.569,672.488C149.633,645.379 112,607.882 112,560C112,339.234 291.234,160 512,160C732.766,160 912,339.234 912,560C912,607.875 874.377,645.368 815.431,672.488L704,768C704,873.968 617.968,960 512,960C411.42,960 328.8,882.494 320.659,784C320.222,778.724 320,773.388 320,768L208.569,672.488Z" style="fill:rgb(47,85,108);stroke:rgb(47,85,108);stroke-width:24.98px;"/>
        </g>
        <path d="M480,320C480,328.831 487.169,352 496,352L528,352C536.796,352 543.944,328.886 544,320.103L544,320C544,328.831 551.169,352 560,352L592,352C600.796,352 607.944,328.886 608,320.103L608,320C608,328.831 615.169,352 624,352L656,352C664.796,352 671.944,328.886 672,320.103L672,320C672,328.831 679.169,352 688,352L720,352C728.831,352 736,328.831 736,320C736,328.831 743.169,352 752,352L784,352C792.796,352 799.944,328.886 800,320.103L800,320L800,311.09C732.539,219.033 628.562,160 512,160C501.215,160 490.538,160.505 480,161.495C376.515,171.204 285.221,227.548 224,311.09L224,320C224,328.831 231.169,352 240,352L272,352C280.796,352 287.944,328.886 288,320.103L288,320C288,328.831 295.169,352 304,352L336,352C344.796,352 351.944,328.886 352,320.103L352,320C352,328.831 359.169,352 368,352L400,352C408.796,352 415.944,328.886 416,320.103L416,320C416,328.831 423.169,352 432,352L464,352C472.831,352 480,328.831 480,320Z" style="fill:rgb(185,185,185);stroke:rgb(185,185,185);stroke-width:24px;"/>
        <g id="mouth">
            <g transform="matrix(1,0,0,0.484897,0,395.599)">
                <path d="M416,768C477.744,724.381 541.705,723.629 608,768" style="fill:none;stroke:black;stroke-width:30.54px;"/>
            </g>
            <g transform="matrix(1,0,0,1,8,59.3649)">
                <path d="M456,746.424C482.272,737.46 524.936,740.06 552,746.424" style="fill:none;stroke:rgb(19,52,72);stroke-width:24px;"/>
            </g>
        </g>
        <g id="nose">
            <g transform="matrix(1,0,0,1,32,-1.13687e-13)">
                <path d="M448,656L448,608" style="fill:none;stroke:black;stroke-width:24px;"/>
            </g>
            <g transform="matrix(1,0,0,1,96,-1.13687e-13)">
                <path d="M448,656L448,608" style="fill:none;stroke:black;stroke-width:24px;"/>
            </g>
        </g>
        <g id="eye" transform="matrix(1.75014,0,0,1.75014,-536.134,-424.087)">
            <g transform="matrix(0.666667,0,0,0.666542,224,160.072)">
                <circle cx="720" cy="528" r="48"/>
            </g>
            <g transform="matrix(1,0,0,1,-16,-10.0026)">
                <circle cx="725.5" cy="532.5" r="5.5" style="fill:white;"/>
            </g>
            <g transform="matrix(1.07554,0,0,1.07555,-81.3958,-45.3924)">
                <circle cx="734.5" cy="505.5" r="8.5" style="fill:white;"/>
            </g>
            <g transform="matrix(0.666612,0,0,0.571384,368.046,120.813)">
                <path d="M456,746.424C482.272,737.46 524.936,740.06 552,746.424" style="fill:none;stroke:rgb(19,52,72);stroke-width:22.09px;"/>
            </g>
        </g>
        <g id="eye1" serif:id="eye" transform="matrix(1.75014,0,0,1.75014,-904.097,-424.087)">
            <g transform="matrix(0.666667,0,0,0.666542,224,160.072)">
                <circle cx="720" cy="528" r="48"/>
            </g>
            <g transform="matrix(1,0,0,1,-16,-10.0026)">
                <circle cx="725.5" cy="532.5" r="5.5" style="fill:white;"/>
            </g>
            <g transform="matrix(1.07554,0,0,1.07555,-81.4167,-45.3924)">
                <circle cx="734.5" cy="505.5" r="8.5" style="fill:white;"/>
            </g>
            <g transform="matrix(0.666612,0,0,0.571384,368.046,120.813)">
                <path d="M456,746.424C482.272,737.46 524.936,740.06 552,746.424" style="fill:none;stroke:rgb(19,52,72);stroke-width:22.09px;"/>
            </g>
        </g>
    </g>
</svg>
