<?xml version="1.0" encoding="UTF-8" standalone="no"?>
<!DOCTYPE svg PUBLIC "-//W3C//DTD SVG 1.1//EN" "http://www.w3.org/Graphics/SVG/1.1/DTD/svg11.dtd">
<svg width="100%" height="100%" viewBox="0 0 1024 414" version="1.1" xmlns="http://www.w3.org/2000/svg" xmlns:xlink="http://www.w3.org/1999/xlink" xml:space="preserve" xmlns:serif="http://www.serif.com/" style="fill-rule:evenodd;clip-rule:evenodd;stroke-linecap:round;stroke-linejoin:round;stroke-miterlimit:1.5;">
    <g id="text">
        <g transform="matrix(1,0,0,1,-10,24.1562)">
            <g transform="matrix(1,0,0,1,623.328,305.813)">
                <text x="0px" y="0px" style="font-family:'Arial-BoldMT', 'Arial', sans-serif;font-weight:700;font-size:64px;fill:rgb(59,59,59);">Engine</text>
            </g>
            <path d="M662.995,273.15C665.534,272.664 667.453,270.431 667.453,267.75L667.453,260C667.453,256.962 664.991,254.5 661.953,254.5L627.984,254.5C624.947,254.5 622.484,256.962 622.484,260L622.484,305.813C622.484,308.85 624.947,311.313 627.984,311.312L662.828,311.312C665.866,311.313 668.328,308.85 668.328,305.813L668.328,298.094C668.328,295.056 665.866,292.594 662.828,292.594L642.734,292.594L642.734,291.125L660.234,291.125C663.272,291.125 665.734,288.663 665.734,285.625L665.734,277.906C665.734,275.875 664.634,274.102 662.995,273.15ZM627.984,305.812L627.984,260L661.953,260L661.953,267.75L637.234,267.75L637.234,277.906L660.234,277.906L660.234,285.625L637.234,285.625L637.234,298.094L662.828,298.094L662.828,305.812L627.984,305.812Z" style="fill:white;"/>
            <path d="M681.741,268.041C680.871,267.462 679.826,267.125 678.703,267.125L670.547,267.125C667.509,267.125 665.047,269.587 665.047,272.625L665.047,305.812C665.047,308.85 667.509,311.313 670.547,311.312L679.328,311.312C682.366,311.313 684.828,308.85 684.828,305.812L684.828,290.781C684.828,287.906 684.882,285.926 685.23,284.86C685.296,284.655 685.427,284.496 685.607,284.371C685.834,284.215 686.087,284.132 686.362,284.105C686.54,284.986 686.516,286.58 686.516,288.875L686.516,305.812C686.516,308.85 688.978,311.313 692.016,311.312L700.797,311.312C703.834,311.313 706.297,308.85 706.297,305.813L706.297,285.187C706.297,282.078 706.059,279.692 705.667,278.024C705.162,275.876 704.259,273.959 702.973,272.267C701.644,270.517 699.738,269.006 697.147,267.879C694.879,266.892 692.38,266.375 689.641,266.375C686.787,266.375 684.151,266.925 681.741,268.041ZM700.797,305.812L692.016,305.812L692.016,288.875C692.016,285.292 691.828,282.974 691.453,281.922C691.078,280.87 690.469,280.052 689.625,279.469C688.781,278.885 687.766,278.594 686.578,278.594C685.057,278.594 683.693,279.01 682.484,279.844C681.276,280.677 680.448,281.781 680,283.156C679.552,284.531 679.328,287.073 679.328,290.781L679.328,305.812L670.547,305.812L670.547,272.625L678.703,272.625L678.703,277.5C681.599,273.75 685.245,271.875 689.641,271.875C691.578,271.875 693.349,272.224 694.953,272.922C696.557,273.62 697.771,274.51 698.594,275.594C699.417,276.677 699.99,277.906 700.313,279.281C700.635,280.656 700.797,282.625 700.797,285.187L700.797,305.812Z" style="fill:white;"/>
            <path d="M706.214,303.197C705.909,303.365 705.619,303.565 705.348,303.793C704.18,304.777 703.474,306.201 703.397,307.725C703.371,308.25 703.359,308.695 703.359,309.062C703.359,313.733 705.19,317.604 708.907,320.647C711.965,323.15 717.052,324.781 724.359,324.781C728.018,324.781 731.038,324.348 733.43,323.581C736.268,322.67 738.503,321.353 740.202,319.745C741.956,318.085 743.387,315.84 744.358,312.927C745.133,310.603 745.609,307.103 745.609,302.406L745.609,272.625C745.609,269.587 743.147,267.125 740.109,267.125L731.891,267.125C730.858,267.125 729.891,267.41 729.066,267.906C726.827,266.879 724.38,266.375 721.734,266.375C716.135,266.375 711.452,268.443 707.685,272.577C704.213,276.386 702.234,281.818 702.234,289.031C702.234,294.686 703.626,299.39 706.214,303.197ZM708.891,308L718.922,309.219C719.089,310.385 719.474,311.187 720.078,311.625C720.911,312.25 722.224,312.562 724.016,312.562C726.307,312.562 728.026,312.219 729.172,311.531C729.943,311.073 730.526,310.333 730.922,309.312C731.193,308.583 731.328,307.24 731.328,305.281L731.328,300.437C728.703,304.021 725.391,305.812 721.391,305.812C716.932,305.812 713.401,303.927 710.797,300.156C708.755,297.177 707.734,293.469 707.734,289.031C707.734,283.469 709.073,279.219 711.75,276.281C714.427,273.344 717.755,271.875 721.734,271.875C725.839,271.875 729.224,273.677 731.891,277.281L731.891,272.625L740.109,272.625L740.109,302.406C740.109,306.323 739.786,309.25 739.141,311.187C738.495,313.125 737.589,314.646 736.422,315.75C735.255,316.854 733.698,317.719 731.75,318.344C729.802,318.969 727.339,319.281 724.359,319.281C718.734,319.281 714.745,318.318 712.391,316.391C710.036,314.464 708.859,312.021 708.859,309.062C708.859,308.771 708.87,308.417 708.891,308ZM716.734,288.531C716.734,292.052 717.417,294.63 718.781,296.266C720.146,297.901 721.828,298.719 723.828,298.719C725.974,298.719 727.786,297.88 729.266,296.203C730.745,294.526 731.484,292.042 731.484,288.75C731.484,285.312 730.776,282.76 729.359,281.094C727.943,279.427 726.151,278.594 723.984,278.594C721.88,278.594 720.146,279.411 718.781,281.047C717.417,282.682 716.734,285.177 716.734,288.531ZM722.234,288.531C722.234,286.787 722.295,285.421 723.004,284.571C723.263,284.261 723.586,284.094 723.984,284.094C724.464,284.094 724.855,284.287 725.169,284.656C725.913,285.531 725.984,286.944 725.984,288.75C725.984,290.404 725.884,291.722 725.141,292.565C724.779,292.976 724.353,293.219 723.828,293.219C723.489,293.219 723.236,293.019 723.004,292.742C722.274,291.867 722.234,290.415 722.234,288.531Z" style="fill:white;"/>
            <path d="M743.778,270.375C743.468,271.061 743.297,271.823 743.297,272.625L743.297,305.813C743.297,308.85 745.759,311.313 748.797,311.312L757.578,311.312C760.616,311.313 763.078,308.85 763.078,305.812L763.078,272.625C763.078,271.823 762.907,271.061 762.597,270.375C762.907,269.689 763.078,268.927 763.078,268.125L763.078,260C763.078,256.962 760.616,254.5 757.578,254.5L748.797,254.5C745.759,254.5 743.297,256.962 743.297,260L743.297,268.125C743.297,268.927 743.468,269.689 743.778,270.375ZM748.797,305.812L748.797,272.625L757.578,272.625L757.578,305.812L748.797,305.812ZM748.797,268.125L748.797,260L757.578,260L757.578,268.125L748.797,268.125Z" style="fill:white;"/>
            <path d="M777.71,268.041C776.84,267.462 775.795,267.125 774.672,267.125L766.516,267.125C763.478,267.125 761.016,269.587 761.016,272.625L761.016,305.812C761.016,308.85 763.478,311.313 766.516,311.312L775.297,311.312C778.334,311.313 780.797,308.85 780.797,305.812L780.797,290.781C780.797,287.906 780.851,285.926 781.198,284.86C781.265,284.655 781.396,284.496 781.576,284.371C781.803,284.215 782.056,284.132 782.331,284.105C782.508,284.986 782.484,286.58 782.484,288.875L782.484,305.812C782.484,308.85 784.947,311.313 787.984,311.312L796.766,311.312C799.803,311.313 802.266,308.85 802.266,305.812L802.266,285.188C802.266,282.078 802.027,279.692 801.636,278.024C801.131,275.876 800.228,273.959 798.942,272.267C797.613,270.517 795.707,269.006 793.116,267.879C790.848,266.892 788.349,266.375 785.609,266.375C782.756,266.375 780.12,266.925 777.71,268.041ZM796.766,305.812L787.984,305.812L787.984,288.875C787.984,285.292 787.797,282.974 787.422,281.922C787.047,280.87 786.438,280.052 785.594,279.469C784.75,278.885 783.734,278.594 782.547,278.594C781.026,278.594 779.661,279.01 778.453,279.844C777.245,280.677 776.417,281.781 775.969,283.156C775.521,284.531 775.297,287.073 775.297,290.781L775.297,305.812L766.516,305.812L766.516,272.625L774.672,272.625L774.672,277.5C777.568,273.75 781.214,271.875 785.609,271.875C787.547,271.875 789.318,272.224 790.922,272.922C792.526,273.62 793.74,274.51 794.563,275.594C795.385,276.677 795.958,277.906 796.281,279.281C796.604,280.656 796.766,282.625 796.766,285.187L796.766,305.812Z" style="fill:white;"/>
            <path d="M838.754,294.696C839.278,293.872 839.589,292.898 839.608,291.852C839.765,283.41 837.735,277.233 834.154,273.143C830.276,268.713 825.036,266.375 818.328,266.375C812.298,266.375 807.324,268.544 803.38,272.816C799.661,276.846 797.609,282.353 797.609,289.469C797.609,295.384 799.125,300.251 801.936,304.132C801.943,304.142 801.951,304.153 801.959,304.163C805.711,309.27 811.388,312.062 819.203,312.062C824.112,312.062 828.171,310.83 831.439,308.572C834.777,306.265 837.283,302.952 838.831,298.539C839.272,297.281 839.238,295.916 838.754,294.696ZM824.891,295.25L833.641,296.719C832.516,299.927 830.74,302.37 828.313,304.047C825.885,305.724 822.849,306.562 819.203,306.562C813.432,306.562 809.161,304.677 806.391,300.906C804.203,297.885 803.109,294.073 803.109,289.469C803.109,283.969 804.547,279.661 807.422,276.547C810.297,273.432 813.932,271.875 818.328,271.875C823.266,271.875 827.161,273.505 830.016,276.766C832.87,280.026 834.234,285.021 834.109,291.75L812.109,291.75C812.172,294.354 812.88,296.38 814.234,297.828C815.589,299.276 817.276,300 819.297,300C820.672,300 821.828,299.625 822.766,298.875C823.703,298.125 824.411,296.917 824.891,295.25ZM825.391,286.375C825.328,283.833 824.672,281.901 823.422,280.578C822.172,279.255 820.651,278.594 818.859,278.594C816.943,278.594 815.359,279.292 814.109,280.687C812.859,282.083 812.245,283.979 812.266,286.375L825.391,286.375Z" style="fill:white;"/>
        </g>
        <g transform="matrix(1,0,0,1,8.19542,36.5916)">
            <g transform="matrix(1,0,0,1,447.449,210.594)">
                <text x="0px" y="0px" style="font-family:'SegoeUI-Bold', 'Segoe UI', sans-serif;font-weight:700;font-size:144px;fill:rgb(59,59,59);">GOBLIN</text>
            </g>
            <path d="M544.484,208.609C546.188,207.627 547.238,205.81 547.238,203.844L547.238,153.148C547.238,150.111 544.776,147.648 541.738,147.648L498.848,147.648C495.81,147.648 493.348,150.111 493.348,153.148L493.348,171.289C493.348,174.327 495.81,176.789 498.848,176.789L513.527,176.789L513.527,187.093C511.429,187.583 508.946,187.797 506.09,187.797C498.749,187.797 492.868,185.629 488.55,181.026C484.078,176.259 482.059,169.45 482.059,160.742C482.059,152.141 484.411,145.215 489.402,140.066C494.306,135.007 500.688,132.563 508.48,132.563C518.638,132.563 527.248,134.511 534.274,138.574C535.975,139.558 538.073,139.559 539.776,138.577C541.478,137.594 542.527,135.778 542.527,133.812L542.527,112.508C542.527,110.192 541.077,108.125 538.9,107.336C530.202,104.187 520.159,102.578 508.762,102.578C490.173,102.578 475.331,108.183 464.137,119.121C452.871,130.128 447.152,144.33 447.152,161.797C447.152,179.259 452.503,192.902 462.871,202.855C473.166,212.737 487.18,217.852 505.035,217.852C520.763,217.852 533.898,214.709 544.484,208.609ZM541.738,203.844C531.894,209.516 519.66,212.352 505.035,212.352C488.816,212.352 476.031,207.863 466.68,198.887C457.328,189.91 452.652,177.547 452.652,161.797C452.652,145.953 457.762,133.039 467.98,123.055C478.199,113.07 491.793,108.078 508.762,108.078C519.449,108.078 528.871,109.555 537.027,112.508L537.027,133.813C529.246,129.313 519.73,127.063 508.48,127.063C499.059,127.063 491.383,130.121 485.453,136.238C479.523,142.355 476.559,150.523 476.559,160.742C476.559,171.102 479.219,179.117 484.539,184.789C489.859,190.461 497.043,193.297 506.09,193.297C511.527,193.297 515.84,192.523 519.027,190.977L519.027,171.289L498.848,171.289L498.848,153.148L541.738,153.148L541.738,203.844Z" style="fill:white;"/>
            <path d="M603.965,217.852C620.432,217.852 633.749,212.37 643.989,201.583C654.121,190.91 659.316,176.905 659.316,159.477C659.316,142.474 654.287,128.826 644.494,118.438C634.583,107.926 621.638,102.578 605.582,102.578C588.665,102.578 575.122,108.15 564.868,119.081C554.724,129.894 549.527,144.009 549.527,161.516C549.527,178.198 554.665,191.691 564.715,202.078C574.836,212.538 587.897,217.852 603.965,217.852ZM603.965,212.352C589.527,212.352 577.762,207.652 568.668,198.254C559.574,188.855 555.027,176.609 555.027,161.516C555.027,145.578 559.644,132.688 568.879,122.844C578.113,113 590.348,108.078 605.582,108.078C619.973,108.078 631.609,112.789 640.492,122.211C649.375,131.633 653.816,144.055 653.816,159.477C653.816,175.32 649.211,188.094 640,197.797C630.789,207.5 618.777,212.352 603.965,212.352ZM604.949,127.625C596.98,127.625 590.652,130.613 585.965,136.59C581.277,142.566 578.934,150.477 578.934,160.32C578.934,170.305 581.277,178.203 585.965,184.016C590.652,189.828 596.793,192.734 604.387,192.734C612.215,192.734 618.426,189.91 623.019,184.262C627.613,178.613 629.91,170.773 629.91,160.742C629.91,150.289 627.684,142.156 623.23,136.344C618.777,130.531 612.684,127.625 604.949,127.625ZM604.949,133.125C610.824,133.125 615.482,135.273 618.864,139.689C622.697,144.691 624.41,151.746 624.41,160.742C624.41,169.269 622.657,175.99 618.752,180.791C615.219,185.136 610.408,187.234 604.387,187.234C598.561,187.234 593.842,185.022 590.246,180.563C586.252,175.61 584.434,168.828 584.434,160.32C584.434,151.903 586.284,145.095 590.292,139.984C593.906,135.377 598.807,133.125 604.949,133.125Z" style="fill:white;"/>
            <path d="M736.747,155.18C738.21,154.025 739.572,152.747 740.833,151.349C745.462,146.219 747.769,140.231 747.769,133.391C747.769,123.93 743.926,116.613 736.299,111.41C729.518,106.784 719.869,104.266 707.254,104.266L670.551,104.266C667.513,104.266 665.051,106.728 665.051,109.766L665.051,210.594C665.051,213.631 667.513,216.094 670.551,216.094L709.293,216.094C722.226,216.094 732.375,212.85 739.849,206.727C747.748,200.256 751.777,191.538 751.777,180.5C751.777,172.661 749.098,166.021 743.785,160.562C741.715,158.436 739.371,156.638 736.747,155.18ZM670.551,210.594L670.551,109.766L707.254,109.766C718.504,109.766 727.152,111.828 733.199,115.953C739.246,120.078 742.269,125.891 742.269,133.391C742.269,138.828 740.43,143.586 736.75,147.664C733.07,151.742 728.371,154.578 722.652,156.172L722.652,156.453C729.824,157.344 735.555,159.992 739.844,164.398C744.133,168.805 746.277,174.172 746.277,180.5C746.277,189.734 742.973,197.059 736.363,202.473C729.754,207.887 720.73,210.594 709.293,210.594L670.551,210.594ZM693.262,167.281L693.262,193.859L705.566,193.859C710.816,193.859 714.93,192.641 717.906,190.203C720.883,187.766 722.371,184.438 722.371,180.219C722.371,176.187 720.906,173.023 717.977,170.727C715.047,168.43 710.957,167.281 705.707,167.281L693.262,167.281ZM698.762,172.781L705.707,172.781C709.482,172.781 712.477,173.404 714.583,175.055C716.165,176.295 716.871,178.042 716.871,180.219C716.871,182.622 716.117,184.559 714.422,185.948C712.299,187.686 709.31,188.359 705.566,188.359L698.762,188.359L698.762,172.781ZM693.262,126.5L693.262,150.406L703.246,150.406C707.934,150.406 711.625,149.27 714.32,146.996C717.016,144.723 718.363,141.594 718.363,137.609C718.363,130.203 712.832,126.5 701.769,126.5L693.262,126.5ZM698.762,132L701.769,132C708.656,132 712.863,132.999 712.863,137.609C712.863,139.788 712.248,141.549 710.774,142.792C708.955,144.326 706.409,144.906 703.246,144.906L698.762,144.906L698.762,132Z" style="fill:white;"/>
            <path d="M822.918,216.094C825.955,216.094 828.418,213.631 828.418,210.594L828.418,192.172C828.418,189.134 825.955,186.672 822.918,186.672L791.082,186.672L791.082,109.766C791.082,106.728 788.62,104.266 785.582,104.266L762.871,104.266C759.833,104.266 757.371,106.728 757.371,109.766L757.371,210.594C757.371,213.631 759.833,216.094 762.871,216.094L822.918,216.094ZM822.918,210.594L762.871,210.594L762.871,109.766L785.582,109.766L785.582,192.172L822.918,192.172L822.918,210.594Z" style="fill:white;"/>
            <path d="M859.199,216.094C862.237,216.094 864.699,213.631 864.699,210.594L864.699,109.766C864.699,106.728 862.237,104.266 859.199,104.266L836.488,104.266C833.451,104.266 830.988,106.728 830.988,109.766L830.988,210.594C830.988,213.631 833.451,216.094 836.488,216.094L859.199,216.094ZM859.199,210.594L836.488,210.594L836.488,109.766L859.199,109.766L859.199,210.594Z" style="fill:white;"/>
            <path d="M909.066,158.366L945.303,213.61C946.32,215.16 948.049,216.094 949.902,216.094L972.824,216.094C975.862,216.094 978.324,213.631 978.324,210.594L978.324,109.766C978.324,106.728 975.862,104.266 972.824,104.266L951.379,104.266C948.341,104.266 945.879,106.728 945.879,109.766L945.879,159.973L911.197,106.762C910.182,105.205 908.449,104.266 906.59,104.266L882.121,104.266C879.083,104.266 876.621,106.728 876.621,109.766L876.621,210.594C876.621,213.631 879.083,216.094 882.121,216.094L903.566,216.094C906.604,216.094 909.066,213.631 909.066,210.594L909.066,158.366ZM904.895,141.77C905.798,143.294 906.949,145.118 908.348,147.242L949.902,210.594L972.824,210.594L972.824,109.766L951.379,109.766L951.379,165.523C951.379,172.414 951.566,177.031 951.941,179.375L951.66,179.375C950.113,176.656 948.426,173.914 946.598,171.148L906.59,109.766L882.121,109.766L882.121,210.594L903.566,210.594L903.566,155.188C903.566,147.875 903.379,142.437 903.004,138.875L903.285,138.875C903.667,139.639 904.173,140.554 904.806,141.621C904.459,142.336 904.114,142.968 903.84,143.446L903.901,143.378L904.895,141.77Z" style="fill:white;"/>
        </g>
    </g>
    <g id="outline" transform="matrix(0.363158,0,0,0.3575,28.6926,6.8)">
        <path d="M112.248,626.738L112.248,896C112.248,906.475 118.033,928.912 126.738,941.398C136.074,954.79 148.764,960.254 160,960.254L192,960.254C197.18,960.254 202.673,959.091 207.996,956.506C213.32,959.091 218.815,960.254 224,960.254L256,960.254C261.18,960.254 266.673,959.091 271.996,956.506C277.32,959.091 282.815,960.254 288,960.254L320,960.254C325.18,960.254 330.673,959.091 335.996,956.506C341.32,959.091 346.815,960.254 352,960.254L384,960.254C389.221,960.254 394.479,959.182 399.56,956.813C432.057,979.291 470.654,992.254 512,992.254C553.342,992.254 591.936,979.294 624.441,956.811C629.522,959.182 634.78,960.254 640,960.254L672,960.254C677.176,960.254 682.67,959.091 687.996,956.502C693.323,959.09 698.819,960.254 704,960.254L736,960.254C741.176,960.254 746.67,959.091 751.996,956.502C757.323,959.09 762.819,960.254 768,960.254L800,960.254C805.176,960.254 810.67,959.091 815.996,956.502C821.323,959.09 826.819,960.254 832,960.254L864,960.254C875.239,960.254 887.958,954.777 897.298,941.325C905.982,928.817 911.752,906.347 911.752,895.897L911.752,626.737C933.392,617.214 958.131,601.528 972.993,576.814C995.345,539.644 1011.13,434.015 1010.69,387.472C1010.56,373.669 1008.65,363.5 1006.67,358.257C1004.52,352.587 1001.64,348.571 998.968,345.729C993.46,339.868 980.32,330.373 960.169,338.394C947.052,343.615 909.838,371.348 881.033,393.651C820.612,237.215 677.801,127.746 512,127.746C346.199,127.746 203.388,237.214 142.967,393.65C114.162,371.348 76.948,343.615 63.831,338.394C43.68,330.373 30.54,339.868 25.032,345.729C22.362,348.571 19.477,352.587 17.335,358.257C15.354,363.5 13.443,373.669 13.313,387.472C12.874,434.015 28.655,539.644 51.007,576.814C65.868,601.527 90.607,617.213 112.248,626.738ZM823.41,920.775C825.889,925.016 828.838,928 832,928L864,928C872.831,928 880,904.727 880,895.897L880,624L855.936,624C860.315,618.678 864.145,613.15 867.387,607.412C880.114,604.969 925.4,594.084 945.897,560C971.275,517.798 985.456,378.063 976,368C970.044,361.661 876.401,437.862 865.11,447.091C820.224,281.223 679.033,160 512,160C344.967,160 203.776,281.223 158.89,447.091C147.599,437.862 53.956,361.661 48,368C38.544,378.063 52.725,517.798 78.103,560C98.6,594.084 143.886,604.969 156.612,607.412C159.853,613.15 163.683,618.678 168.061,624L144,624L144,896C144,904.831 151.169,928 160,928L192,928C195.17,928 198.126,924.998 200.607,920.745L208,928.254L215.39,920.772L215.419,920.821L208.104,928.252L208.105,928.252L215.437,920.851C217.91,925.05 220.849,928 224,928L256,928C259.17,928 262.126,924.998 264.607,920.745L272,928.254L279.39,920.772L279.419,920.821L272.104,928.252L272.105,928.252L279.437,920.851C281.91,925.05 284.849,928 288,928L320,928C323.17,928 326.126,924.998 328.607,920.745L336,928.254L343.39,920.772L343.419,920.821L336.104,928.252L336.105,928.252L343.437,920.851C345.91,925.05 348.849,928 352,928L384,928C388.907,928 393.301,920.845 396.237,912.974C427.245,942.261 467.732,960 512,960C556.27,960 596.759,942.26 627.78,912.959C630.716,920.842 635.103,928 640,928L672,928C675.181,928 678.146,924.964 680.634,920.668L688,928.151L695.364,920.696L695.393,920.745L688.104,928.148L688.105,928.148L695.41,920.775C697.889,925.016 700.838,928 704,928L736,928C739.181,928 742.146,924.964 744.634,920.668L752,928.151L759.364,920.696L759.393,920.745L752.104,928.148L752.105,928.148L759.41,920.775C761.889,925.016 764.838,928 768,928L800,928C803.181,928 806.146,924.964 808.634,920.668L816,928.151L823.364,920.696L823.393,920.745L816.104,928.148L816.105,928.148L823.41,920.775Z" style="fill:white;"/>
    </g>
    <g id="goblin" transform="matrix(0.363158,0,0,0.3575,28.6926,6.8)">
        <g id="Layer2">
            <g transform="matrix(1,0,0,1,-32,16)">
                <path d="M896,912L864,912C855.169,912 848,888.727 848,879.897L848,880C847.944,888.783 840.796,912 832,912L800,912C791.169,912 784,888.727 784,879.897L784,880C783.944,888.783 776.796,912 768,912L736,912C727.169,912 720,888.727 720,879.897L720,880C719.944,888.783 712.796,912 704,912L672,912C663.169,912 656,888.727 656,879.897L656,608L912,608L912,879.897C912,888.727 904.831,912 896,912Z" style="fill:rgb(185,185,185);stroke:rgb(185,185,185);stroke-width:24px;"/>
            </g>
            <g transform="matrix(1,0,0,1,-512,16)">
                <path d="M896,912L864,912C855.169,912 848,888.831 848,880L848,880.103C847.944,888.886 840.796,912 832,912L800,912C791.169,912 784,888.831 784,880L784,880.103C783.944,888.886 776.796,912 768,912L736,912C727.169,912 720,888.831 720,880L720,880.103C719.944,888.886 712.796,912 704,912L672,912C663.169,912 656,888.831 656,880L656,608L912,608L912,880C912,888.831 904.831,912 896,912Z" style="fill:rgb(185,185,185);stroke:rgb(185,185,185);stroke-width:24px;"/>
            </g>
        </g>
        <g id="ear">
            <path d="M864,448C864,448 969.661,361.254 976,368C985.456,378.063 971.275,517.798 945.897,560C921.916,599.879 864,608 864,608L832,608L832,448L864,448Z" style="fill:rgb(47,85,108);stroke:rgb(47,85,108);stroke-width:24px;"/>
            <g transform="matrix(0.707107,-0.707107,0.707107,0.707107,43.8169,262.522)">
                <path d="M456,746.424C482.272,737.46 524.936,740.06 552,746.424" style="fill:none;stroke:rgb(19,52,72);stroke-width:24px;"/>
            </g>
        </g>
        <g id="ear1" serif:id="ear" transform="matrix(-1,0,0,1,1024,-1.13687e-13)">
            <path d="M864,448C864,448 969.661,361.254 976,368C985.456,378.063 971.275,517.798 945.897,560C921.916,599.879 864,608 864,608L832,608L832,448L864,448Z" style="fill:rgb(47,85,108);stroke:rgb(47,85,108);stroke-width:24px;"/>
            <g transform="matrix(0.707107,-0.707107,0.707107,0.707107,43.8169,262.522)">
                <path d="M456,746.424C482.272,737.46 524.936,740.06 552,746.424" style="fill:none;stroke:rgb(19,52,72);stroke-width:24px;"/>
            </g>
        </g>
        <g transform="matrix(0.92,0,0,1,40.96,0)">
            <path d="M208.569,672.488C149.633,645.379 112,607.882 112,560C112,339.234 291.234,160 512,160C732.766,160 912,339.234 912,560C912,607.875 874.377,645.368 815.431,672.488L704,768C704,873.968 617.968,960 512,960C411.42,960 328.8,882.494 320.659,784C320.222,778.724 320,773.388 320,768L208.569,672.488Z" style="fill:rgb(47,85,108);stroke:rgb(47,85,108);stroke-width:24.98px;"/>
        </g>
        <path d="M480,320C480,328.831 487.169,352 496,352L528,352C536.796,352 543.944,328.886 544,320.103L544,320C544,328.831 551.169,352 560,352L592,352C600.796,352 607.944,328.886 608,320.103L608,320C608,328.831 615.169,352 624,352L656,352C664.796,352 671.944,328.886 672,320.103L672,320C672,328.831 679.169,352 688,352L720,352C728.831,352 736,328.831 736,320C736,328.831 743.169,352 752,352L784,352C792.796,352 799.944,328.886 800,320.103L800,311.09C732.539,219.033 628.562,160 512,160C501.215,160 490.538,160.505 480,161.495C376.515,171.204 285.221,227.548 224,311.09L224,320C224,328.831 231.169,352 240,352L272,352C280.796,352 287.944,328.886 288,320.103L288,320C288,328.831 295.169,352 304,352L336,352C344.796,352 351.944,328.886 352,320.103L352,320C352,328.831 359.169,352 368,352L400,352C408.796,352 415.944,328.886 416,320.103L416,320C416,328.831 423.169,352 432,352L464,352C472.831,352 480,328.831 480,320Z" style="fill:rgb(185,185,185);stroke:rgb(185,185,185);stroke-width:24px;"/>
        <g id="mouth">
            <g transform="matrix(1,0,0,0.484897,0,395.599)">
                <path d="M416,768C477.744,724.381 541.705,723.629 608,768" style="fill:none;stroke:black;stroke-width:30.54px;"/>
            </g>
            <g transform="matrix(1,0,0,1,8,59.3649)">
                <path d="M456,746.424C482.272,737.46 524.936,740.06 552,746.424" style="fill:none;stroke:rgb(19,52,72);stroke-width:24px;"/>
            </g>
        </g>
        <g id="nose">
            <g transform="matrix(1,0,0,1,32,-1.13687e-13)">
                <path d="M448,656L448,608" style="fill:none;stroke:black;stroke-width:24px;"/>
            </g>
            <g transform="matrix(1,0,0,1,96,-1.13687e-13)">
                <path d="M448,656L448,608" style="fill:none;stroke:black;stroke-width:24px;"/>
            </g>
        </g>
        <g id="eye" transform="matrix(1.75014,0,0,1.75014,-536.134,-424.087)">
            <g transform="matrix(0.666667,0,0,0.666542,224,160.072)">
                <circle cx="720" cy="528" r="48"/>
            </g>
            <g transform="matrix(1,0,0,1,-16,-10.0026)">
                <circle cx="725.5" cy="532.5" r="5.5" style="fill:white;"/>
            </g>
            <g transform="matrix(1.07554,0,0,1.07555,-81.3958,-45.3924)">
                <circle cx="734.5" cy="505.5" r="8.5" style="fill:white;"/>
            </g>
            <g transform="matrix(0.666612,0,0,0.571384,368.046,120.813)">
                <path d="M456,746.424C482.272,737.46 524.936,740.06 552,746.424" style="fill:none;stroke:rgb(19,52,72);stroke-width:22.09px;"/>
            </g>
        </g>
        <g id="eye1" serif:id="eye" transform="matrix(1.75014,0,0,1.75014,-904.097,-424.087)">
            <g transform="matrix(0.666667,0,0,0.666542,224,160.072)">
                <circle cx="720" cy="528" r="48"/>
            </g>
            <g transform="matrix(1,0,0,1,-16,-10.0026)">
                <circle cx="725.5" cy="532.5" r="5.5" style="fill:white;"/>
            </g>
            <g transform="matrix(1.07554,0,0,1.07555,-81.4167,-45.3924)">
                <circle cx="734.5" cy="505.5" r="8.5" style="fill:white;"/>
            </g>
            <g transform="matrix(0.666612,0,0,0.571384,368.046,120.813)">
                <path d="M456,746.424C482.272,737.46 524.936,740.06 552,746.424" style="fill:none;stroke:rgb(19,52,72);stroke-width:22.09px;"/>
            </g>
        </g>
    </g>
</svg>
